<?xml version="1.0" encoding="iso-8859-1"?>
<!-- Generator: Adobe Illustrator 18.1.1, SVG Export Plug-In . SVG Version: 6.00 Build 0)  -->
<svg version="1.1" id="Capa_1" xmlns="http://www.w3.org/2000/svg" xmlns:xlink="http://www.w3.org/1999/xlink" x="0px" y="0px"
	 viewBox="0 0 485.861 485.861" style="enable-background:new 0 0 485.861 485.861;" xml:space="preserve">
<g>
	<g>
		<g>
			<path style="fill:#010002;" d="M437.443,254.229c-14.672-85.309-85.041-152.053-170.708-162.71
				c13.884-23.101,16.086-51.47,4.69-70.515C266.743,13.168,255.404,0,232.181,0c-7.088,0-14.892,1.26-23.191,3.739
				c-22.801,6.861-31.628,27.06-28.531,43.48c2.455,12.908,13.624,28.003,37.05,28.003c1.528,0,3.089-0.057,4.048-0.179
				c22.484,0,33.246-14.542,33.929-28.938c0.293-5.592-0.967-12.022-4.007-18.062c0.91,1.032,1.748,2.17,2.487,3.414
				c8.795,14.713,3.512,41.48-11.234,58.526h-0.333c-96.007,0-179.138,70.532-195.086,164.734
				c-21.516,4.544-37.253,23.613-37.253,46.04c0,24.556,18.915,44.797,43.634,46.91C79.518,429.254,156.52,485.861,242.39,485.861
				c85.862,0,162.823-56.534,188.705-138.015c25.548-0.512,46.178-21.427,46.178-47.081
				C477.265,277.363,460.114,257.749,437.443,254.229z M430.16,327.476c-1.496,0-3.016-0.146-4.739-0.455l-9.267-1.642l-2.333,9.015
				c-20.899,77.189-91.398,131.106-171.44,131.106c-79.839,0-150.249-53.771-171.261-130.772l-2.292-8.397l-8.722,0.975
				c-1.057,0.122-2.032,0.171-2.943,0.171c-14.753,0-26.735-11.998-26.735-26.719c0-14.591,11.445-26.312,26.028-26.694l8.738-0.171
				l1.162-8.706c11.274-88.276,86.959-154.841,176.032-154.841c89.154,0,164.848,66.589,176.097,154.923l1.211,9.242l10.461-0.471
				c14.745,0,26.743,11.99,26.743,26.719C456.903,315.486,444.914,327.476,430.16,327.476z M217.346,26.841
				c11.656,1.162,18.216,10.177,17.818,18.216c-0.325,6.373-5.032,9.624-14.493,9.657c-16.306,1.569-19.484-7.592-20.175-11.299
				c-1.211-6.397,1.926-14.192,10.014-18.419l-0.114,1.122L217.346,26.841z"/>
		</g>
		<g>
			<path style="fill:#010002;" d="M243.666,289.759c-59.111,0-107.2,34.4-107.2,76.701c0,7.608,1.544,13.087,4.747,16.785
				c3.17,3.642,7.649,5.446,13.754,5.446c7.942,0,18.119-3.064,30.003-6.649c16.468-4.918,36.944-11.071,58.688-11.071
				c21.72,0,42.236,6.153,58.745,11.112c11.827,3.552,22.02,6.609,29.946,6.609c12.282,0,18.509-7.495,18.509-22.232
				C350.866,324.159,302.753,289.759,243.666,289.759z"/>
		</g>
		<g>
			<path style="fill:#010002;" d="M140.84,231.778c0.301-0.268,30.393-28.556,56.29-28.556c4.121,0,7.99,0.732,11.429,2.178
				l1.171,0.512l3.52-8.299l-1.195-0.512c-4.56-1.91-9.6-2.886-14.924-2.886c-29.499,0-61.143,29.816-62.476,31.076l-0.927,0.91
				l6.186,6.47L140.84,231.778z"/>
		</g>
		<g>
			<path style="fill:#010002;" d="M293.584,194.232c-5.316,0-10.356,0.959-14.916,2.869l-1.195,0.512l3.512,8.299l1.187-0.512
				c3.438-1.447,7.267-2.178,11.404-2.178c25.906,0,55.998,28.287,56.29,28.556l0.927,0.886l6.218-6.47l-0.935-0.91
				C354.743,224.024,323.286,194.232,293.584,194.232z"/>
		</g>
		<g>
			<path style="fill:#010002;" d="M46.792,220.276l4.081-0.195l0.211-4.089c0.179-4.064,0.715-24.638-6.714-32.075
				c-3.95-3.934-9.218-6.129-14.827-6.129c-5.617,0-10.9,2.195-14.851,6.129c-8.145,8.169-8.145,21.492,0.033,29.669
				c5.885,5.893,20.151,6.763,28.109,6.763C44.825,220.349,46.256,220.301,46.792,220.276z M29.543,186.77
				c3.203,0,6.218,1.26,8.486,3.495c2.788,2.821,4.064,12.656,4.146,21.134c-8.633-0.081-18.297-1.39-21.102-4.186
				c-4.698-4.658-4.698-12.282,0-16.948C23.309,188.03,26.324,186.77,29.543,186.77z"/>
		</g>
		<g>
			<path style="fill:#010002;" d="M431.737,190.574l4.048,0.187c0.528,0.016,2.008,0.073,4.032,0.073
				c7.942,0,22.175-0.878,28.068-6.771c8.177-8.185,8.177-21.492,0.024-29.661c-3.975-3.95-9.25-6.129-14.851-6.129
				c-5.609,0-10.868,2.178-14.843,6.129c-7.43,7.438-6.877,28.011-6.682,32.059L431.737,190.574z M440.427,181.861
				c0.049-8.446,1.366-18.306,4.154-21.11c2.276-2.26,5.275-3.487,8.478-3.487s6.218,1.227,8.486,3.487
				c4.658,4.698,4.658,12.29,0,16.956C458.74,180.495,449.035,181.796,440.427,181.861z"/>
		</g>
	</g>
</g>
<g>
</g>
<g>
</g>
<g>
</g>
<g>
</g>
<g>
</g>
<g>
</g>
<g>
</g>
<g>
</g>
<g>
</g>
<g>
</g>
<g>
</g>
<g>
</g>
<g>
</g>
<g>
</g>
<g>
</g>
</svg>
